<svg xmlns="http://www.w3.org/2000/svg" xmlns:xlink="http://www.w3.org/1999/xlink" width="500" zoomAndPan="magnify" viewBox="0 0 375 374.999991" height="500" preserveAspectRatio="xMidYMid meet" version="1.0"><defs><clipPath id="adc1091fb2"><path d="M 64.871094 98.542969 L 300 98.542969 L 300 329.921875 L 64.871094 329.921875 Z M 64.871094 98.542969 " clip-rule="nonzero"/></clipPath><clipPath id="1e93f662ca"><path d="M 102.371094 98.542969 L 262.605469 98.542969 C 272.550781 98.542969 282.089844 102.496094 289.121094 109.527344 C 296.152344 116.558594 300.105469 126.097656 300.105469 136.042969 L 300.105469 292.421875 C 300.105469 302.367188 296.152344 311.90625 289.121094 318.9375 C 282.089844 325.96875 272.550781 329.921875 262.605469 329.921875 L 102.371094 329.921875 C 92.425781 329.921875 82.886719 325.96875 75.855469 318.9375 C 68.820312 311.90625 64.871094 302.367188 64.871094 292.421875 L 64.871094 136.042969 C 64.871094 126.097656 68.820312 116.558594 75.855469 109.527344 C 82.886719 102.496094 92.425781 98.542969 102.371094 98.542969 Z M 102.371094 98.542969 " clip-rule="nonzero"/></clipPath><clipPath id="4cfddc189b"><path d="M 74.171875 91.703125 L 304.84375 91.703125 L 304.84375 322.375 L 74.171875 322.375 Z M 74.171875 91.703125 " clip-rule="nonzero"/></clipPath><clipPath id="adbd17005b"><path d="M 111.671875 91.703125 L 267.34375 91.703125 C 277.289062 91.703125 286.828125 95.652344 293.863281 102.6875 C 300.894531 109.71875 304.84375 119.257812 304.84375 129.203125 L 304.84375 284.875 C 304.84375 294.820312 300.894531 304.359375 293.863281 311.390625 C 286.828125 318.425781 277.289062 322.375 267.34375 322.375 L 111.671875 322.375 C 101.726562 322.375 92.1875 318.425781 85.15625 311.390625 C 78.125 304.359375 74.171875 294.820312 74.171875 284.875 L 74.171875 129.203125 C 74.171875 119.257812 78.125 109.71875 85.15625 102.6875 C 92.1875 95.652344 101.726562 91.703125 111.671875 91.703125 Z M 111.671875 91.703125 " clip-rule="nonzero"/></clipPath><clipPath id="feb01e5406"><path d="M 129.492188 79.039062 L 251 79.039062 L 251 116.515625 L 129.492188 116.515625 Z M 129.492188 79.039062 " clip-rule="nonzero"/></clipPath><clipPath id="9f8d4b0ae5"><path d="M 137.742188 79.039062 L 242.722656 79.039062 C 244.910156 79.039062 247.007812 79.90625 248.554688 81.453125 C 250.101562 83 250.972656 85.101562 250.972656 87.289062 L 250.972656 108.265625 C 250.972656 110.453125 250.101562 112.550781 248.554688 114.097656 C 247.007812 115.644531 244.910156 116.515625 242.722656 116.515625 L 137.742188 116.515625 C 135.554688 116.515625 133.453125 115.644531 131.90625 114.097656 C 130.359375 112.550781 129.492188 110.453125 129.492188 108.265625 L 129.492188 87.289062 C 129.492188 85.101562 130.359375 83 131.90625 81.453125 C 133.453125 79.90625 135.554688 79.039062 137.742188 79.039062 Z M 137.742188 79.039062 " clip-rule="nonzero"/></clipPath><clipPath id="b275648e3a"><path d="M 161.796875 37.5 L 218.667969 37.5 L 218.667969 96.148438 L 161.796875 96.148438 Z M 161.796875 37.5 " clip-rule="nonzero"/></clipPath><clipPath id="aac3f61fb1"><path d="M 190.230469 37.5 C 174.527344 37.5 161.796875 50.609375 161.796875 66.785156 C 161.796875 82.957031 174.527344 96.066406 190.230469 96.066406 C 205.9375 96.066406 218.667969 82.957031 218.667969 66.785156 C 218.667969 50.609375 205.9375 37.5 190.230469 37.5 Z M 190.230469 37.5 " clip-rule="nonzero"/></clipPath><clipPath id="851dc3cb99"><path d="M 172.824219 46.9375 L 207.640625 46.9375 L 207.640625 82.835938 L 172.824219 82.835938 Z M 172.824219 46.9375 " clip-rule="nonzero"/></clipPath><clipPath id="719585d965"><path d="M 190.230469 46.9375 C 180.617188 46.9375 172.824219 54.960938 172.824219 64.863281 C 172.824219 74.761719 180.617188 82.789062 190.230469 82.789062 C 199.84375 82.789062 207.640625 74.761719 207.640625 64.863281 C 207.640625 54.960938 199.84375 46.9375 190.230469 46.9375 Z M 190.230469 46.9375 " clip-rule="nonzero"/></clipPath><clipPath id="3939c259ba"><path d="M 129.492188 91.703125 L 250.972656 91.703125 L 250.972656 116.53125 L 129.492188 116.53125 Z M 129.492188 91.703125 " clip-rule="nonzero"/></clipPath><clipPath id="54f8628a30"><path d="M 230 167.5625 L 301 167.5625 L 301 210 L 230 210 Z M 230 167.5625 " clip-rule="nonzero"/></clipPath><clipPath id="a1c723be40"><path d="M 230 167.5625 L 301 167.5625 L 301 210 L 230 210 Z M 230 167.5625 " clip-rule="nonzero"/></clipPath><clipPath id="252ad211e9"><path d="M 213.25 239 L 240 239 L 240 254 L 213.25 254 Z M 213.25 239 " clip-rule="nonzero"/></clipPath><clipPath id="9ba0a225aa"><path d="M 213.25 240 L 240 240 L 240 254 L 213.25 254 Z M 213.25 240 " clip-rule="nonzero"/></clipPath><clipPath id="969d3edf1d"><path d="M 79.460938 166.0625 L 151 166.0625 L 151 209 L 79.460938 209 Z M 79.460938 166.0625 " clip-rule="nonzero"/></clipPath><clipPath id="68917e2969"><path d="M 79.460938 166.0625 L 150 166.0625 L 150 209 L 79.460938 209 Z M 79.460938 166.0625 " clip-rule="nonzero"/></clipPath><clipPath id="04773b8762"><path d="M 140 238 L 166.894531 238 L 166.894531 252 L 140 252 Z M 140 238 " clip-rule="nonzero"/></clipPath><clipPath id="5bdf9c4b1c"><path d="M 140 239 L 166.894531 239 L 166.894531 252 L 140 252 Z M 140 239 " clip-rule="nonzero"/></clipPath></defs><g clip-path="url(#adc1091fb2)"><g clip-path="url(#1e93f662ca)"><path fill="#d9d9d9" d="M 64.871094 98.542969 L 299.863281 98.542969 L 299.863281 329.921875 L 64.871094 329.921875 Z M 64.871094 98.542969 " fill-opacity="1" fill-rule="nonzero"/></g></g><g clip-path="url(#4cfddc189b)"><g clip-path="url(#adbd17005b)"><path fill="#3a7d9c" d="M 74.171875 91.703125 L 304.84375 91.703125 L 304.84375 322.375 L 74.171875 322.375 Z M 74.171875 91.703125 " fill-opacity="1" fill-rule="nonzero"/></g></g><g clip-path="url(#feb01e5406)"><g clip-path="url(#9f8d4b0ae5)"><path fill="#d9d9d9" d="M 129.492188 79.039062 L 251 79.039062 L 251 116.515625 L 129.492188 116.515625 Z M 129.492188 79.039062 " fill-opacity="1" fill-rule="nonzero"/></g></g><g clip-path="url(#b275648e3a)"><g clip-path="url(#aac3f61fb1)"><path fill="#d9d9d9" d="M 161.796875 37.5 L 218.667969 37.5 L 218.667969 96.148438 L 161.796875 96.148438 Z M 161.796875 37.5 " fill-opacity="1" fill-rule="nonzero"/></g></g><g clip-path="url(#851dc3cb99)"><g clip-path="url(#719585d965)"><path fill="#3a7d9c" d="M 172.824219 46.9375 L 207.640625 46.9375 L 207.640625 82.835938 L 172.824219 82.835938 Z M 172.824219 46.9375 " fill-opacity="1" fill-rule="nonzero"/></g></g><g clip-path="url(#3939c259ba)"><path fill="#d9d9d9" d="M 129.492188 91.703125 L 251.019531 91.703125 L 251.019531 116.53125 L 129.492188 116.53125 Z M 129.492188 91.703125 " fill-opacity="1" fill-rule="nonzero"/></g><path fill="#3ecf8e" d="M 214.167969 180.164062 C 212.800781 181.429688 211.410156 182.714844 209.859375 184.148438 C 209.332031 183.8125 208.714844 183.441406 208.121094 183.035156 C 190.339844 170.832031 165.703125 179.945312 160.527344 200.886719 C 156.203125 218.371094 167.449219 233.820312 182.363281 237.667969 C 197.859375 241.664062 212.898438 234.269531 219.074219 219.730469 C 221.59375 213.792969 221.992188 207.621094 220.542969 201.386719 C 220.050781 199.261719 220.109375 197.523438 221.574219 195.84375 C 222.378906 194.921875 222.96875 193.816406 223.828125 192.539062 C 224.273438 193.171875 224.664062 193.5625 224.855469 194.035156 C 229.105469 204.503906 228.953125 214.949219 223.625 224.894531 C 216.121094 238.910156 204.015625 245.875 188.207031 244.988281 C 164.613281 243.65625 149.847656 221.992188 153.957031 201.050781 C 157.261719 184.207031 173.105469 169.714844 193.808594 171.375 C 200.570312 171.914062 206.765625 174.265625 212.300781 178.25 C 212.769531 178.59375 213.234375 178.949219 213.664062 179.335938 C 213.839844 179.492188 213.921875 179.746094 214.167969 180.164062 Z M 214.167969 180.164062 " fill-opacity="1" fill-rule="nonzero"/><path fill="#3ecf8e" d="M 189.882812 213.105469 C 191.796875 210.992188 193.425781 209.125 195.125 207.316406 C 204.738281 197.066406 214.347656 186.816406 224.007812 176.609375 C 225.488281 175.046875 227.1875 173.679688 228.855469 172.3125 C 229.515625 171.773438 230.382812 171.484375 231.152344 171.082031 C 232.074219 172.351562 231.457031 173.242188 230.964844 174.058594 C 229.113281 177.113281 227.292969 180.199219 225.296875 183.15625 C 215.757812 197.285156 206.195312 211.390625 196.5625 225.453125 C 195.308594 227.28125 193.710938 228.917969 192.082031 230.441406 C 190.488281 231.933594 189.660156 231.863281 187.882812 230.609375 C 187.140625 230.085938 186.398438 229.519531 185.777344 228.859375 C 179.589844 222.242188 173.371094 215.648438 167.28125 208.941406 C 164.765625 206.171875 165.167969 204.492188 168.402344 202.636719 C 168.976562 202.308594 169.597656 202.058594 170.1875 201.75 C 173.441406 200.035156 176.261719 200.269531 178.949219 203.089844 C 181.644531 205.910156 184.660156 208.421875 187.542969 211.0625 C 188.199219 211.667969 188.886719 212.238281 189.882812 213.105469 Z M 189.882812 213.105469 " fill-opacity="1" fill-rule="nonzero"/><g clip-path="url(#54f8628a30)"><path fill="#e8d4a5" d="M 230.796875 209.851562 C 237.890625 208.246094 250.675781 205.332031 269.304688 201.027344 C 299.542969 194.042969 301.3125 167.5625 301.3125 167.5625 L 230.136719 199.28125 C 230.558594 201.816406 230.964844 205.527344 230.796875 209.851562 Z M 230.796875 209.851562 " fill-opacity="1" fill-rule="nonzero"/></g><path fill="#e8d4a5" d="M 228.765625 221.835938 C 236.101562 222.054688 246.40625 222.199219 257.839844 221.878906 C 280.148438 221.253906 290.15625 200.609375 290.15625 200.609375 L 230.636719 212.292969 C 230.371094 215.308594 229.800781 218.542969 228.765625 221.835938 Z M 228.765625 221.835938 " fill-opacity="1" fill-rule="nonzero"/><path fill="#e8d4a5" d="M 244.53125 235.605469 C 262.53125 237.761719 268.089844 226.292969 268.089844 226.292969 L 227.070312 226.292969 C 226.230469 228.160156 225.21875 230.023438 224.003906 231.851562 C 228.78125 233.078125 235.707031 234.546875 244.53125 235.605469 Z M 244.53125 235.605469 " fill-opacity="1" fill-rule="nonzero"/><g clip-path="url(#a1c723be40)"><path fill="#e8d4a5" d="M 273.371094 191.539062 C 260.851562 194.988281 241.796875 200.851562 230.714844 204.300781 C 230.828125 205.984375 230.875 207.847656 230.796875 209.851562 C 237.890625 208.246094 250.675781 205.332031 269.304688 201.027344 C 299.542969 194.042969 301.3125 167.5625 301.3125 167.5625 C 301.3125 167.5625 291.929688 186.433594 273.371094 191.539062 Z M 273.371094 191.539062 " fill-opacity="1" fill-rule="nonzero"/></g><path fill="#e8d4a5" d="M 290.15625 200.609375 C 290.15625 200.609375 280.738281 212.25 265.171875 213.992188 C 253.96875 215.242188 238.050781 216.347656 230.007812 216.871094 C 229.699219 218.496094 229.292969 220.15625 228.765625 221.835938 C 236.101562 222.054688 246.40625 222.199219 257.839844 221.878906 C 280.148438 221.253906 290.15625 200.609375 290.15625 200.609375 Z M 290.15625 200.609375 " fill-opacity="1" fill-rule="nonzero"/><path fill="#e8d4a5" d="M 248.457031 231.3125 C 240.855469 230.84375 231.023438 229.671875 225.722656 228.996094 C 225.199219 229.953125 224.628906 230.90625 224.003906 231.851562 C 228.78125 233.078125 235.707031 234.546875 244.53125 235.605469 C 262.53125 237.761719 268.089844 226.292969 268.089844 226.292969 C 268.089844 226.292969 259.402344 231.992188 248.457031 231.3125 Z M 248.457031 231.3125 " fill-opacity="1" fill-rule="nonzero"/><path fill="#e8d4a5" d="M 234.628906 245.761719 C 248.988281 251.367188 256.003906 243.113281 256.003906 243.113281 L 222.242188 234.382812 C 221.152344 235.738281 219.921875 237.058594 218.53125 238.304688 C 222.207031 240.332031 227.589844 243.015625 234.628906 245.761719 Z M 234.628906 245.761719 " fill-opacity="1" fill-rule="nonzero"/><path fill="#e8d4a5" d="M 238.773438 243.066406 C 232.617188 241.0625 224.777344 238.003906 220.554688 236.320312 C 219.921875 236.996094 219.25 237.660156 218.53125 238.304688 C 222.207031 240.332031 227.589844 243.015625 234.628906 245.761719 C 248.988281 251.367188 256.003906 243.113281 256.003906 243.113281 C 256.003906 243.113281 247.636719 245.953125 238.773438 243.066406 Z M 238.773438 243.066406 " fill-opacity="1" fill-rule="nonzero"/><g clip-path="url(#252ad211e9)"><path fill="#e8d4a5" d="M 223.703125 249.871094 C 233.183594 256.0625 239.46875 251.183594 239.46875 251.183594 L 216.511719 239.824219 C 215.523438 240.636719 214.4375 241.398438 213.253906 242.085938 C 215.589844 244.097656 219.054688 246.835938 223.703125 249.871094 Z M 223.703125 249.871094 " fill-opacity="1" fill-rule="nonzero"/></g><g clip-path="url(#9ba0a225aa)"><path fill="#e8d4a5" d="M 227.089844 248.554688 C 222.964844 246.1875 217.789062 242.808594 215.007812 240.964844 C 214.449219 241.355469 213.867188 241.730469 213.253906 242.085938 C 215.589844 244.097656 219.054688 246.835938 223.703125 249.871094 C 233.183594 256.0625 239.46875 251.183594 239.46875 251.183594 C 239.46875 251.183594 233.027344 251.964844 227.089844 248.554688 Z M 227.089844 248.554688 " fill-opacity="1" fill-rule="nonzero"/></g><g clip-path="url(#969d3edf1d)"><path fill="#e8d4a5" d="M 149.664062 208.351562 C 142.574219 206.746094 129.785156 203.832031 111.15625 199.527344 C 80.921875 192.542969 79.148438 166.0625 79.148438 166.0625 L 150.324219 197.78125 C 149.902344 200.316406 149.496094 204.027344 149.664062 208.351562 Z M 149.664062 208.351562 " fill-opacity="1" fill-rule="nonzero"/></g><path fill="#e8d4a5" d="M 151.695312 220.335938 C 144.359375 220.554688 134.058594 220.699219 122.621094 220.378906 C 100.3125 219.753906 90.304688 199.109375 90.304688 199.109375 L 149.824219 210.792969 C 150.089844 213.808594 150.660156 217.042969 151.695312 220.335938 Z M 151.695312 220.335938 " fill-opacity="1" fill-rule="nonzero"/><path fill="#e8d4a5" d="M 135.933594 234.105469 C 117.929688 236.261719 112.371094 224.792969 112.371094 224.792969 L 153.390625 224.792969 C 154.230469 226.660156 155.242188 228.523438 156.457031 230.351562 C 151.679688 231.578125 144.757812 233.046875 135.933594 234.105469 Z M 135.933594 234.105469 " fill-opacity="1" fill-rule="nonzero"/><g clip-path="url(#68917e2969)"><path fill="#e8d4a5" d="M 107.089844 190.039062 C 119.609375 193.488281 138.664062 199.351562 149.746094 202.800781 C 149.636719 204.484375 149.585938 206.347656 149.664062 208.351562 C 142.574219 206.746094 129.785156 203.832031 111.15625 199.527344 C 80.921875 192.542969 79.148438 166.0625 79.148438 166.0625 C 79.148438 166.0625 88.53125 184.933594 107.089844 190.039062 Z M 107.089844 190.039062 " fill-opacity="1" fill-rule="nonzero"/></g><path fill="#e8d4a5" d="M 90.304688 199.109375 C 90.304688 199.109375 99.722656 210.75 115.289062 212.492188 C 126.492188 213.742188 142.410156 214.847656 150.457031 215.371094 C 150.761719 216.996094 151.167969 218.65625 151.695312 220.335938 C 144.359375 220.554688 134.058594 220.699219 122.621094 220.378906 C 100.3125 219.753906 90.304688 199.109375 90.304688 199.109375 Z M 90.304688 199.109375 " fill-opacity="1" fill-rule="nonzero"/><path fill="#e8d4a5" d="M 132.003906 229.8125 C 139.605469 229.34375 149.4375 228.171875 154.738281 227.496094 C 155.261719 228.453125 155.832031 229.40625 156.457031 230.351562 C 151.679688 231.578125 144.757812 233.046875 135.933594 234.105469 C 117.929688 236.261719 112.371094 224.792969 112.371094 224.792969 C 112.371094 224.792969 121.058594 230.492188 132.003906 229.8125 Z M 132.003906 229.8125 " fill-opacity="1" fill-rule="nonzero"/><path fill="#e8d4a5" d="M 145.832031 244.261719 C 131.476562 249.867188 124.457031 241.613281 124.457031 241.613281 L 158.21875 232.882812 C 159.308594 234.238281 160.539062 235.558594 161.929688 236.804688 C 158.257812 238.832031 152.871094 241.515625 145.832031 244.261719 Z M 145.832031 244.261719 " fill-opacity="1" fill-rule="nonzero"/><path fill="#e8d4a5" d="M 141.6875 241.566406 C 147.84375 239.5625 155.683594 236.503906 159.90625 234.820312 C 160.539062 235.496094 161.210938 236.160156 161.929688 236.804688 C 158.257812 238.832031 152.871094 241.515625 145.832031 244.261719 C 131.476562 249.867188 124.457031 241.613281 124.457031 241.613281 C 124.457031 241.613281 132.824219 244.453125 141.6875 241.566406 Z M 141.6875 241.566406 " fill-opacity="1" fill-rule="nonzero"/><g clip-path="url(#04773b8762)"><path fill="#e8d4a5" d="M 156.757812 248.371094 C 147.28125 254.5625 140.992188 249.683594 140.992188 249.683594 L 163.949219 238.324219 C 164.9375 239.136719 166.023438 239.898438 167.207031 240.585938 C 164.875 242.597656 161.40625 245.335938 156.757812 248.371094 Z M 156.757812 248.371094 " fill-opacity="1" fill-rule="nonzero"/></g><g clip-path="url(#5bdf9c4b1c)"><path fill="#e8d4a5" d="M 153.371094 247.054688 C 157.496094 244.6875 162.671875 241.308594 165.457031 239.464844 C 166.015625 239.855469 166.597656 240.230469 167.207031 240.585938 C 164.875 242.597656 161.40625 245.335938 156.757812 248.371094 C 147.28125 254.5625 140.992188 249.683594 140.992188 249.683594 C 140.992188 249.683594 147.433594 250.464844 153.371094 247.054688 Z M 153.371094 247.054688 " fill-opacity="1" fill-rule="nonzero"/></g></svg>